<?xml version="1.0" encoding="utf-8"?>
<!DOCTYPE svg PUBLIC "-//W3C//DTD SVG 20010904//EN" "http://www.w3.org/TR/2001/REC-SVG-20010904/DTD/svg10.dtd">
<svg version="1.0" xmlns="http://www.w3.org/2000/svg" width="325px" height="260px" viewBox="0 0 325 260" preserveAspectRatio="xMidYMid meet">
 <g fill="#ffffff">
  <path d="M51.8 147.3 c-7.3 -4.6 -6.3 -15 1.7 -18.3 1.7 -0.7 1.7 -0.9 0.3 -0.9 -1 -0.1 -1.8 -0.5 -1.8 -1.1 0 -0.6 2.8 -1 6.4 -1 3.5 0 7.1 -0.3 8 -0.6 1.1 -0.4 1.6 -0.1 1.6 1 0 0.9 -0.8 1.6 -1.7 1.6 -1.2 0 -0.6 0.7 1.6 2.1 2.6 1.6 3.1 2.3 2 2.9 -0.8 0.6 -1.9 0.4 -2.9 -0.4 -3.8 -3.3 -13.9 -2.5 -16 1.4 -1.3 2.4 -1.3 6.6 0 9 1.9 3.6 13.6 5 15.6 1.9 0.3 -0.5 1.5 -0.9 2.7 -0.9 l2.1 0 -2.2 2.2 c-3 3 -13.4 3.7 -17.4 1.1z"/>
  <path d="M82 138.5 c0 -8.7 0.3 -10.5 1.5 -10.5 1.1 0 1.5 1.2 1.5 4.5 l0 4.5 8.5 0 8.5 0 0 -4.5 c0 -3.3 0.4 -4.5 1.5 -4.5 1.2 0 1.5 1.8 1.5 10.5 0 8.7 -0.3 10.5 -1.5 10.5 -1.1 0 -1.5 -1.2 -1.5 -5 l0 -5 -8.5 0 -8.5 0 0 5 c0 3.8 -0.4 5 -1.5 5 -1.2 0 -1.5 -1.8 -1.5 -10.5z"/>
  <path d="M118 138.5 c0 -8.7 0.3 -10.5 1.5 -10.5 1.2 0 1.5 1.8 1.5 10.5 0 8.7 -0.3 10.5 -1.5 10.5 -1.2 0 -1.5 -1.8 -1.5 -10.5z"/>
  <path d="M133 138.5 c0 -8.7 0.3 -10.5 1.5 -10.5 1.2 0 1.5 1.7 1.5 9 l0 9 8 0 c6.4 0 8 0.3 8 1.5 0 1.2 -1.7 1.5 -9.5 1.5 l-9.5 0 0 -10.5z"/>
  <path d="M161 138.5 c0 -8.7 0.3 -10.5 1.5 -10.5 1.2 0 1.5 1.7 1.5 9 l0 9 8 0 c6.4 0 8 0.3 8 1.5 0 1.2 -1.7 1.5 -9.5 1.5 l-9.5 0 0 -10.5z"/>
  <path d="M191.8 138.5 c4.3 -8.4 5.9 -10.5 7.4 -10.3 2.5 0.4 13.5 20.8 11.3 20.8 -0.9 0 -2.1 -1.1 -2.7 -2.5 -1 -2.3 -1.6 -2.5 -8.3 -2.5 -6.6 0 -7.4 0.2 -8.9 2.5 -0.9 1.4 -2.3 2.5 -3 2.5 -0.9 0 0.6 -3.8 4.2 -10.5z m12.2 2 c0 -1 -4.4 -9.5 -5 -9.5 -0.6 0 -5 8.5 -5 9.5 0 0.3 2.3 0.5 5 0.5 2.8 0 5 -0.2 5 -0.5z"/>
  <path d="M222.9 143.1 l6.4 -5.8 -3.4 -2.5 c-1.9 -1.4 -5.1 -3.6 -7.2 -5 l-3.8 -2.5 2.8 -1.1 c4.7 -1.9 11.6 -3.2 17.3 -3.1 l5.5 0 -3 2.2 c-1.9 1.4 -4.9 2.4 -8.6 2.7 l-5.6 0.5 4.2 3.2 4.2 3.1 6.4 -5.7 c3.5 -3.1 8.1 -6.8 10.2 -8 l3.9 -2.4 -4.9 -4.9 -4.8 -5 8.2 0.7 c7.9 0.7 8.3 0.6 11 -1.9 1.8 -1.7 3.9 -2.6 6 -2.6 3 0 6.3 2.1 6.3 4.1 0 0.5 1.6 0.9 3.5 0.9 2.4 0 3.5 0.5 3.5 1.4 0 1 1.4 1.6 4.3 1.8 l4.2 0.3 -4.7 2.5 c-3 1.5 -4.3 2.7 -3.6 3.1 1.6 1 -0.8 3.9 -3.2 3.9 -1 0 -2 0.3 -2.2 0.8 -0.1 0.4 -2.1 2.2 -4.3 4 -4 3.3 -8.9 4.4 -7.9 1.8 0.4 -1 -0.9 -0.9 -5.3 0.6 -3.8 1.3 -7.3 1.8 -10.3 1.5 -3.8 -0.4 -5.1 0 -8.8 2.5 l-4.4 3.1 3.3 2.6 c6.4 5 8.4 6.9 7.7 7.6 -0.3 0.4 -3.8 -1.6 -7.6 -4.4 -7.3 -5.4 -8.4 -5.9 -7.7 -3.8 0.4 1.3 -10.7 9.7 -12.8 9.7 -0.6 -0.1 1.7 -2.7 5.2 -5.9z m45.4 -25.8 c-0.5 -1.2 -0.3 -1.4 0.8 -0.8 0.8 0.4 1.1 0.5 0.7 0 -1.1 -1.2 -6.7 -1.2 -6.5 0 0.1 0.6 1.3 1.3 2.7 1.6 1.4 0.4 2.6 0.7 2.7 0.8 0.1 0 -0.1 -0.6 -0.4 -1.6z m-5.3 -4.4 c0 -1.1 -6.7 -1.2 -7.3 -0.1 -0.3 0.4 1.3 0.8 3.4 0.9 2.1 0 3.9 -0.3 3.9 -0.8z"/>
 </g>
 <g fill="#f0bf12">
  <path d="M255.3 149 c-3.3 -1.4 -3 -4.9 0.5 -5.6 1.5 -0.3 3.2 -1.6 3.9 -2.9 1.2 -2.7 1.1 -2.8 -5.9 -4 -4.7 -0.7 -6 -2.5 -1.8 -2.5 3.8 0 9.8 -2.4 12.1 -4.9 4.4 -4.7 11.1 -9.3 14.3 -9.8 4.2 -0.7 4.2 -0.5 1.7 4.5 -2.5 4.9 -7.7 9.7 -12.4 11.7 -2.8 1.1 -3.7 2 -3.3 3.1 0.3 0.9 0.6 2.1 0.6 2.8 0 0.6 1.4 1.7 3 2.3 3.4 1.3 3.9 3.7 1.1 5.3 -2.4 1.2 -10.7 1.2 -13.8 0z"/>
  <path d="M46.4 126.7 c-0.3 -0.8 -0.4 -4.7 -0.2 -8.8 l0.3 -7.4 6.2 -0.3 c5.5 -0.3 6.5 -0.6 8.8 -3.4 1.4 -1.7 2.9 -2.8 3.2 -2.4 0.4 0.4 -0.3 1.3 -1.5 2.2 -3.5 2.4 -2.6 3.4 3.3 3.4 l5.5 0 0 9 0 9 -12.5 0 c-9.6 0 -12.7 -0.3 -13.1 -1.3z m19.8 -7.5 c0 -3.5 -0.4 -6.8 -0.9 -7.3 -0.6 -0.6 -4.5 -0.9 -8.9 -0.7 l-7.9 0.3 0 7.3 0 7.3 8.8 -0.3 8.9 -0.3 0 -6.3z m4.6 -4.7 c0 -2.3 -0.5 -3.5 -1.4 -3.5 -0.9 0 -1.4 1.2 -1.4 3.5 0 2.3 0.5 3.5 1.4 3.5 0.9 0 1.4 -1.2 1.4 -3.5z"/>
  <path d="M246 123.3 c0 -1.4 6 -4.5 7.6 -3.9 2.3 0.9 1.7 3.6 -0.8 3.6 -1.3 0 -3.3 0.3 -4.5 0.6 -1.3 0.4 -2.3 0.2 -2.3 -0.3z"/>
  <path d="M268.6 118.4 c-0.9 -2.4 0.2 -3.4 3.5 -3.4 3.3 0 5.1 2.6 2.8 4.1 -2.2 1.4 -5.6 1 -6.3 -0.7z"/>
  <path d="M257.2 116.8 c-2.4 -2.4 -1.4 -4.1 2 -3.4 5 1 6.2 4.6 1.4 4.6 -1.2 0 -2.7 -0.5 -3.4 -1.2z"/>
  <path d="M270.5 111.1 c-0.8 -2.7 -3.5 -3.4 -5.6 -1.5 -0.9 0.8 -2.8 1.4 -4.1 1.2 -2.3 -0.3 -2.3 -0.3 0.7 -3 3.8 -3.6 7.4 -4.3 12.1 -2.3 8.6 3.6 9.9 7.5 2.5 7.5 -4 0 -5.1 -0.4 -5.6 -1.9z"/>
  <path d="M55.9 107.1 c-1.3 -1.1 -2.1 -2.2 -1.7 -2.6 0.9 -0.9 2.6 0.2 3.8 2.6 1.3 2.4 0.8 2.4 -2.1 0z"/>
 </g>
</svg>