<?xml version="1.0" encoding="utf-8"?>
<!DOCTYPE svg PUBLIC "-//W3C//DTD SVG 20010904//EN" "http://www.w3.org/TR/2001/REC-SVG-20010904/DTD/svg10.dtd">
<svg version="1.0" xmlns="http://www.w3.org/2000/svg" width="245px" height="50px" viewBox="0 0 245 50" preserveAspectRatio="xMidYMid meet">
 <g fill="#fefefe">
  <path d="M12.3 49 c-4.9 -1.1 -8 -3.6 -9.3 -7.4 -1.5 -4.6 0.7 -9.9 5.1 -12.1 4.3 -2.3 14 -1.7 16.9 1 2.9 2.6 1 4.2 -2.4 2 -6.4 -4.2 -15.8 -1 -16.4 5.6 -0.6 6.7 8 10.6 15.2 7 3.3 -1.7 5.6 -1.7 5.6 0 0 2.5 -9.6 5 -14.7 3.9z"/>
  <path d="M38 38.6 c0 -8.6 0.3 -10.6 1.4 -10.6 1 0 1.6 1.4 1.8 4.3 l0.3 4.2 8.3 0.3 8.2 0.3 0 -4.6 c0 -3.9 0.3 -4.6 1.8 -4.3 1.5 0.3 1.7 1.6 1.7 10.3 0 8.7 -0.2 10 -1.7 10.3 -1.5 0.3 -1.8 -0.4 -1.8 -4.8 l0 -5.2 -8.2 0.4 -8.3 0.3 0 4.5 c0 3.5 -0.4 4.5 -1.7 4.8 -1.6 0.3 -1.8 -0.7 -1.8 -10.2z"/>
  <path d="M73.2 38.5 c-0.2 -10 -0.1 -10.5 1.8 -10.5 1.9 0 2 0.6 2 10.5 0 9.3 -0.2 10.5 -1.7 10.5 -1.6 0 -1.8 -1.3 -2.1 -10.5z"/>
  <path d="M88 38.5 c0 -9.8 0.1 -10.5 2 -10.5 1.9 0 2 0.7 2 9 l0 9 8 0 c6.4 0 8 0.3 8 1.5 0 1.2 -1.8 1.5 -10 1.5 l-10 0 0 -10.5z"/>
  <path d="M117 38.5 c0 -8.7 0.3 -10.5 1.5 -10.5 1.2 0 1.5 1.7 1.5 9 l0 9 8 0 c6.4 0 8 0.3 8 1.5 0 1.2 -1.7 1.5 -9.5 1.5 l-9.5 0 0 -10.5z"/>
  <path d="M147.4 38.8 c4.4 -8.2 6 -10.3 7.7 -10.3 1.7 0 3.3 2.1 7.6 10.3 4.8 8.8 5.2 10.2 3.6 10.2 -1.1 0 -2.5 -1.1 -3.1 -2.5 -1.1 -2.3 -1.7 -2.5 -8.2 -2.5 -6.5 0 -7.1 0.2 -8.2 2.5 -0.6 1.4 -2 2.5 -3 2.5 -1.7 0 -1.1 -1.5 3.6 -10.2z m10.4 -2.3 c-1.2 -2.5 -2.5 -4.5 -2.8 -4.5 -0.3 0 -1.6 2 -2.8 4.5 l-2.2 4.5 5 0 5 0 -2.2 -4.5z"/>
  <path d="M178.3 43.2 c3.1 -3.2 5.7 -6 5.7 -6.4 0 -0.3 -2.9 -2.5 -6.5 -4.8 -3.7 -2.4 -6.2 -4.7 -5.8 -5.1 1.6 -1.6 12.9 -3.9 19.2 -3.9 l6.5 0 -3.4 2.5 c-2.7 2 -4.6 2.5 -8.9 2.5 l-5.5 0 3.4 3 c1.9 1.6 4 2.9 4.5 3 0.6 0 3.3 -2.3 6 -5 2.7 -2.8 6.9 -6 9.2 -7.1 2.4 -1.1 4.3 -2.7 4.3 -3.4 0 -0.7 -2.1 -3.2 -4.7 -5.4 -2.5 -2.3 -4.4 -4.3 -4.2 -4.5 0.2 -0.2 4.1 0.1 8.6 0.7 8 0.9 8.1 0.9 10.9 -1.7 1.9 -1.7 4 -2.6 6.1 -2.6 3 0 6.3 2.1 6.3 4.1 0 0.5 1.6 0.9 3.5 0.9 2.4 0 3.5 0.5 3.5 1.5 0 1.1 1.1 1.5 4.1 1.5 3.4 0 3.9 0.2 3 1.4 -0.6 0.8 -2.4 1.9 -4 2.6 -1.6 0.6 -2.8 1.8 -2.7 2.7 0 0.8 -0.8 2 -1.9 2.7 -1.1 0.6 -4.3 2.8 -7.1 4.8 -4.6 3.5 -10.4 5.2 -8.9 2.8 0.8 -1.4 -0.2 -1.2 -5.5 0.6 -2.9 1 -6.3 1.4 -9.6 1.1 -4.6 -0.5 -5.4 -0.2 -8.9 2.7 l-3.8 3.2 5.1 4 c2.8 2.1 5.1 4.7 5.2 5.8 0 1.3 -0.3 1.6 -1.2 0.9 -0.7 -0.6 -3.9 -2.9 -7 -5.2 -5.6 -4 -5.8 -4.1 -7.6 -2.3 -2.9 2.9 -10.9 8.2 -12.3 8.2 -0.8 0 1.2 -2.6 4.4 -5.8z"/>
 </g>
 <g fill="#efbe0f">
  <path d="M211.3 49 c-3.3 -1.4 -3 -4.9 0.5 -5.6 1.5 -0.3 3.2 -1.6 3.9 -2.9 1.2 -2.7 1.1 -2.8 -5.9 -4 -4.8 -0.8 -5.9 -2.5 -1.6 -2.5 3.5 0 12.5 -3.6 11.5 -4.6 -0.9 -0.9 10.2 -8.9 14 -10.2 4.2 -1.4 4.9 -0.2 2.4 4.5 -2.5 5 -7.6 9.8 -12.4 11.8 -2.8 1.1 -3.7 2 -3.3 3.1 0.3 0.9 0.6 2.1 0.6 2.8 0 0.6 1.4 1.7 3 2.3 3.4 1.3 3.9 3.7 1.1 5.3 -2.4 1.2 -10.7 1.2 -13.8 0z"/>
  <path d="M2 18.1 c0 -10 0.1 -10.1 7.7 -10.1 l4.6 0 -2.7 -2.1 c-1.4 -1.1 -2.3 -2.5 -2 -3.1 0.4 -0.5 1.9 0.3 3.6 1.9 2.3 2.2 4.1 2.9 8.6 3.3 l5.7 0.5 0.3 9.3 0.3 9.2 -13.1 0 -13 0 0 -8.9z m19.8 -0.3 l-0.3 -6.3 -7.8 -0.3 -7.8 -0.3 0.4 3.1 c0.3 1.6 0.1 3 -0.4 3 -0.5 0 -0.5 1 0 2.3 0.4 1.2 0.6 2.8 0.4 3.5 -0.4 0.9 1.6 1.2 7.7 1.2 l8.1 0 -0.3 -6.2z"/>
  <path d="M202 23.3 c0 -0.5 1.1 -1.6 2.5 -2.3 1.4 -0.7 2.5 -1.7 2.5 -2.2 0 -0.5 0.9 -0.4 2 0.2 2.7 1.5 2.6 4 -0.2 4 -1.3 0 -3.3 0.3 -4.5 0.6 -1.3 0.4 -2.3 0.2 -2.3 -0.3z"/>
  <path d="M224.3 18.4 c-1 -2.6 1.9 -4.7 5 -3.5 1.5 0.6 2.7 1.7 2.7 2.5 0 2.7 -6.7 3.7 -7.7 1z"/>
  <path d="M212.6 15.8 c-1.9 -2.6 -1.3 -3.8 2 -3.8 1.7 0 2.3 0.4 1.8 1.2 -0.5 0.7 -0.2 0.9 0.8 0.6 1.5 -0.6 4.2 2.5 3.1 3.6 -1.5 1.5 -6.3 0.5 -7.7 -1.6z"/>
  <path d="M226.5 11.1 c-0.8 -2.7 -3.5 -3.4 -5.6 -1.5 -0.9 0.8 -2.8 1.4 -4.1 1.2 -2.3 -0.3 -2.3 -0.3 0.7 -3 3.8 -3.6 7.4 -4.3 12.1 -2.3 8.6 3.6 9.9 7.5 2.5 7.5 -4 0 -5.1 -0.4 -5.6 -1.9z"/>
  <path d="M18 5 c1.1 -2 3 -2.8 3 -1.2 0 1.1 -2.2 3.2 -3.2 3.2 -0.5 0 -0.4 -0.9 0.2 -2z"/>
 </g>
</svg>